<svg xmlns="http://www.w3.org/2000/svg" viewBox="0 0 1024 1024" width="1024" height="1024">
  <rect width="1024" height="1024" rx="224" fill="#0A0A0A"/>

  <!-- shadow -->
  <ellipse cx="512" cy="780" rx="280" ry="48" fill="#000000" opacity="0.5"/>

  <!-- rock base -->
  <path d="M200,680 Q160,520 240,360 Q320,200 480,180 Q640,158 740,300 Q840,420 820,600 Q800,740 680,790 Q520,840 360,780 Z" fill="#6B6460"/>

  <!-- mid facet -->
  <path d="M260,640 Q224,490 310,350 Q390,216 500,210 Q630,200 720,330 Q800,440 778,600 Q720,680 580,700 Q390,720 268,648 Z" fill="#8C8480"/>

  <!-- upper facet -->
  <path d="M340,560 Q308,430 390,320 Q460,220 540,224 Q640,226 700,330 Q752,420 720,530 Q640,580 500,580 Q380,582 342,558 Z" fill="#AEA8A0"/>

  <!-- highlight facet -->
  <path d="M420,460 Q400,360 460,280 Q520,210 600,230 Q670,254 690,340 Q700,420 640,470 Q560,500 460,478 Z" fill="#CEC8BC"/>

  <!-- bright highlight -->
  <path d="M470,380 Q458,310 500,264 Q544,222 596,244 Q638,266 630,330 Q590,370 524,376 Z" fill="#E8E0D2" opacity="0.8"/>

  <!-- cracks -->
  <path d="M620,660 Q650,590 660,510" stroke="#4A4440" stroke-width="6" fill="none" stroke-linecap="round"/>
  <path d="M480,710 Q466,630 472,550" stroke="#4A4440" stroke-width="5" fill="none" stroke-linecap="round"/>
  <path d="M660,510 Q676,430 652,350" stroke="#4A4440" stroke-width="4" fill="none" stroke-linecap="round"/>
  <path d="M530,580 Q546,520 538,450" stroke="#4A4440" stroke-width="3.5" fill="none" stroke-linecap="round"/>
</svg>